<svg xmlns="http://www.w3.org/2000/svg" viewBox="0 0 960 610" font-family="Segoe UI, Arial, sans-serif">
  <defs>
    <marker id="arrow" markerWidth="10" markerHeight="10" refX="8" refY="3" orient="auto" markerUnits="strokeWidth">
      <path d="M0,0 L8,3 L0,6 Z" fill="#555"/>
    </marker>
  </defs>

  <rect x="0" y="0" width="960" height="610" fill="#ffffff"/>
  <text x="480" y="34" text-anchor="middle" font-size="20" font-weight="bold" fill="#333">Architektura systemu - predykcja temperatury</text>

  <g stroke="#555" stroke-width="1.6" fill="none" marker-end="url(#arrow)">
    <line x1="196" y1="86" x2="228" y2="86"/>
    <line x1="372" y1="86" x2="404" y2="86"/>
    <line x1="558" y1="86" x2="596" y2="86"/>
    <line x1="688" y1="112" x2="600" y2="200"/>
    <line x1="690" y1="112" x2="602" y2="290"/>
    <line x1="490" y1="320" x2="490" y2="350"/>
    <line x1="600" y1="200" x2="640" y2="280"/>
    <line x1="600" y1="290" x2="640" y2="290"/>
    <line x1="600" y1="380" x2="640" y2="320"/>
    <line x1="600" y1="300" x2="640" y2="375"/>
    <line x1="600" y1="380" x2="640" y2="480"/>
    <line x1="725" y1="400" x2="725" y2="455"/>
    <line x1="720" y1="505" x2="720" y2="535"/>
    <line x1="600" y1="525" x2="640" y2="480"/>
  </g>
  <g stroke="#888" stroke-width="1.4" fill="none" stroke-dasharray="5 4" marker-end="url(#arrow)">
    <line x1="380" y1="200" x2="300" y2="280"/>
    <line x1="380" y1="290" x2="300" y2="290"/>
    <line x1="380" y1="380" x2="300" y2="300"/>
    <line x1="350" y1="524" x2="380" y2="524"/>
  </g>
  <text x="605" y="432" font-size="11" fill="#666">model AutoGluon</text>
  <text x="610" y="355" font-size="11" fill="#666">zakresy cech</text>
  <text x="120" y="322" font-size="11" fill="#666">metryki</text>
  <text x="356" y="516" font-size="11" fill="#666">publikuje obraz</text>

  <g font-size="13" fill="#333">
    <g>
      <rect x="30" y="60" width="166" height="52" rx="8" fill="#dae8fc" stroke="#6c8ebf"/>
      <text x="113" y="91" text-anchor="middle">Kaggle dataset</text>
    </g>
    <g>
      <rect x="228" y="60" width="144" height="52" rx="8" fill="#d5e8d4" stroke="#82b366"/>
      <text x="300" y="91" text-anchor="middle">data_ingestion</text>
    </g>
    <g>
      <rect x="404" y="60" width="154" height="52" rx="8" fill="#d5e8d4" stroke="#82b366"/>
      <text x="481" y="91" text-anchor="middle">data_preparation</text>
    </g>
    <g>
      <rect x="596" y="60" width="186" height="52" rx="8" fill="#ffe6cc" stroke="#d79b00"/>
      <text x="689" y="85" text-anchor="middle">temperatures_primary</text>
      <text x="689" y="101" text-anchor="middle" font-size="11" fill="#666">czysty zbi&#243;r</text>
    </g>

    <g>
      <rect x="380" y="170" width="220" height="52" rx="8" fill="#d5e8d4" stroke="#82b366"/>
      <text x="490" y="194" text-anchor="middle">data_modeling</text>
      <text x="490" y="210" text-anchor="middle" font-size="11" fill="#666">LinearRegression + RandomForest</text>
    </g>
    <g>
      <rect x="380" y="260" width="220" height="60" rx="8" fill="#d5e8d4" stroke="#82b366"/>
      <text x="490" y="286" text-anchor="middle">feature_engineering</text>
      <text x="490" y="304" text-anchor="middle" font-size="11" fill="#666">cechy + RF + strojenie</text>
    </g>
    <g>
      <rect x="380" y="350" width="220" height="60" rx="8" fill="#d5e8d4" stroke="#82b366"/>
      <text x="490" y="376" text-anchor="middle">AutoML</text>
      <text x="490" y="394" text-anchor="middle" font-size="11" fill="#666">AutoGluon na engineered data</text>
    </g>
    <g>
      <rect x="640" y="260" width="170" height="60" rx="8" fill="#d5e8d4" stroke="#82b366"/>
      <text x="725" y="286" text-anchor="middle">evaluation</text>
      <text x="725" y="304" text-anchor="middle" font-size="11" fill="#666">wsp&#243;lny ranking modeli</text>
    </g>
    <g>
      <rect x="640" y="350" width="170" height="50" rx="8" fill="#ffe6cc" stroke="#d79b00"/>
      <text x="725" y="372" text-anchor="middle">drift_baseline.json</text>
      <text x="725" y="388" text-anchor="middle" font-size="11" fill="#666">zakresy do API</text>
    </g>
    <g>
      <rect x="120" y="260" width="180" height="60" rx="8" fill="#fff2cc" stroke="#d6b656"/>
      <text x="210" y="286" text-anchor="middle">MLflow</text>
      <text x="210" y="304" text-anchor="middle" font-size="11" fill="#666">&#347;ledzenie eksperyment&#243;w</text>
    </g>

    <g>
      <rect x="640" y="455" width="170" height="50" rx="8" fill="#f8cecc" stroke="#b85450"/>
      <text x="725" y="485" text-anchor="middle">FastAPI POST /predict</text>
    </g>
    <g>
      <rect x="640" y="535" width="170" height="50" rx="8" fill="#f8cecc" stroke="#b85450"/>
      <text x="725" y="565" text-anchor="middle">Prometheus /metrics</text>
    </g>
    <g>
      <rect x="380" y="500" width="220" height="50" rx="8" fill="#f8cecc" stroke="#b85450"/>
      <text x="490" y="530" text-anchor="middle">Docker / docker-compose</text>
    </g>
    <g>
      <rect x="30" y="500" width="320" height="50" rx="8" fill="#e1d5e7" stroke="#9673a6"/>
      <text x="190" y="522" text-anchor="middle">GitHub Actions</text>
      <text x="190" y="538" text-anchor="middle" font-size="11" fill="#666">CI &#183; CD &#183; Continuous Training</text>
    </g>
  </g>
</svg>
